# xmcd CD database file
#
# Track frame offsets:
#	150
#	13230
#	31860
#	47195
#	64135
#	75755
#	83507
#	96400
#	109742
#	119077
#	130822
#
# Disc length: 1943 seconds
#
# Revision: 0
# Processed by: cddbd v1.5PL3 Copyright (c) Steve Scherf et al.
# Submitted via: CDex 1.51
#
DISCID=8807950b
DTITLE=Andre Previn - Some of the Best
DYEAR=1996
DGENRE=Jazz
TTITLE0=Thinking of you
TTITLE1=Laura
TTITLE2=When I fall in love
TTITLE3=Invitation
TTITLE4=Skylark
TTITLE5=Nothing to do with love
TTITLE6=My shing hour
TTITLE7=Quiet nights of quiet stars
TTITLE8=Boat ride
TTITLE9=You'r gonna hear from me
TTITLE10=Moonlight becomes you
EXTD=YEAR: 1996
EXTT0=
EXTT1=
EXTT2=
EXTT3=
EXTT4=
EXTT5=
EXTT6=
EXTT7=
EXTT8=
EXTT9=
EXTT10=
PLAYORDER=
